# xmcd CD database file
#
# Track frame offsets:
#	150
#	24975
#	42300
#	67125
#
# Disc length: 1122 seconds
#
# Revision: 0
# Processed by: cddbd v1.5PL3 Copyright (c) Steve Scherf et al.
# Submitted via: CDex 1.51
#
DISCID=30046004
DTITLE=MAX - Ｇｉｖｅ　ｍｅ　ａ　Ｓｈａｋｅ
DYEAR=1997
DGENRE=
TTITLE0=Ｇｉｖｅ　ｍｅ　ａ　Ｓｈａｋｅ
TTITLE1=ＫＩＳＳ　ＴＯ　ＫＩＳＳ
TTITLE2=Ｇｉｖｅ　ｍｅ　ａ　Ｓｈａｋｅ（オリジナル・カラオケ）
TTITLE3=ＫＩＳＳ　ＴＯ　ＫＩＳＳ（オリジナル・カラオケ）
EXTD=YEAR: 1997.04.09
EXTT0=
EXTT1=
EXTT2=
EXTT3=
PLAYORDER=
